<?xml version="1.0" standalone="no"?>
<!DOCTYPE svg PUBLIC "-//W3C//DTD SVG 20010904//EN"
 "http://www.w3.org/TR/2001/REC-SVG-20010904/DTD/svg10.dtd">
<svg version="1.0" xmlns="http://www.w3.org/2000/svg"
 width="998.000000pt" height="998.000000pt" viewBox="0 0 998.000000 998.000000"
 preserveAspectRatio="xMidYMid meet">

<g transform="translate(0.000000,998.000000) scale(0.100000,-0.100000)"
fill="#000000" stroke="none">
<path d="M0 4990 l0 -4990 4990 0 4990 0 0 4990 0 4990 -4990 0 -4990 0 0
-4990z m3938 1206 l562 -327 0 -50 c0 -28 -3 -48 -7 -46 -5 2 -245 142 -535
311 -290 169 -532 305 -538 301 -7 -4 -10 -174 -10 -500 l0 -493 401 -246
c221 -135 408 -246 416 -246 8 0 73 33 144 73 l129 72 0 76 0 77 -315 187
-315 187 0 44 c0 25 5 44 11 44 6 0 168 -93 360 -207 l349 -206 0 -126 0 -126
-117 -65 c-64 -36 -147 -82 -183 -102 l-67 -38 -404 248 c-222 137 -423 260
-446 275 l-43 27 0 606 0 606 23 -14 c12 -8 275 -162 585 -342z m2742 -255 c0
-467 -3 -601 -12 -609 -7 -5 -208 -130 -447 -276 l-434 -266 -183 102 -184
103 0 127 0 126 108 63 c59 34 211 124 337 199 127 75 240 142 253 149 21 11
22 10 22 -37 l0 -50 -312 -185 -313 -186 -3 -78 -2 -78 128 -72 c70 -39 133
-73 139 -75 7 -2 192 107 412 242 l401 245 0 504 c0 423 -2 502 -14 498 -7 -3
-246 -141 -529 -306 -284 -166 -523 -304 -532 -307 -14 -6 -16 1 -13 42 l3 49
575 337 c316 185 581 336 588 337 9 1 12 -125 12 -598z m-1186 318 c10 -52 8
-56 -31 -64 -136 -25 -131 -22 -177 -93 -23 -37 -46 -73 -50 -80 -5 -8 3 -18
23 -30 l31 -17 0 -167 0 -166 -92 -53 c-51 -29 -105 -61 -120 -71 l-28 -19 0
-145 c0 -79 -3 -144 -6 -144 -3 0 -15 5 -26 11 -14 8 -23 8 -31 0 -6 -6 -14
-11 -19 -11 -4 0 -9 66 -10 147 l-3 148 -115 66 -115 67 -3 165 -2 165 29 22
30 21 -50 79 c-28 44 -58 80 -66 80 -8 0 -46 7 -85 16 l-70 16 5 35 c4 20 9
38 12 41 3 3 50 -3 105 -13 l100 -18 81 -124 c44 -68 82 -129 85 -136 2 -7
-15 -23 -41 -37 l-45 -25 0 -117 0 -117 73 -42 c39 -23 84 -48 98 -57 25 -14
30 -12 122 42 l97 57 0 117 0 117 -45 25 c-25 14 -45 28 -45 32 0 4 38 65 85
137 l84 129 58 12 c32 7 74 16 93 20 55 13 57 12 64 -21z m2447 -52 c7 -26 4
-29 -72 -67 -91 -46 -89 -39 -56 -175 l22 -90 92 -3 c84 -3 91 -4 97 -25 13
-49 31 -47 -381 -45 l-387 3 -13 54 c-8 29 -13 55 -11 56 13 13 676 323 687
322 8 -1 18 -15 22 -30z m-5153 -182 c9 -9 -48 -218 -68 -250 -22 -36 -73 -65
-114 -65 -38 0 -256 50 -286 65 -14 7 -36 25 -50 40 -23 25 -25 33 -22 108 1
45 3 98 5 117 l2 34 -107 25 c-111 25 -116 29 -99 74 l9 24 363 -84 c200 -46
365 -86 367 -88z m2289 23 c-23 -42 -25 -43 -51 -23 -16 12 -22 12 -42 -2 -14
-9 -26 -14 -28 -12 -18 24 -36 56 -36 65 0 7 19 23 42 37 l42 25 47 -27 47
-26 -21 -37z m-872 -287 l620 -359 3 -135 3 -135 -34 -21 c-19 -12 -37 -21
-41 -21 -3 0 -6 56 -6 125 l0 125 -37 24 c-53 34 -1042 606 -1048 606 -3 0 -5
-102 -5 -227 l0 -228 215 -130 215 -130 0 -47 c0 -27 -3 -48 -7 -48 -5 0 -120
69 -258 153 l-250 153 -3 327 c-1 180 1 327 5 327 5 0 287 -162 628 -359z
m2233 32 l-3 -328 -250 -152 c-137 -84 -253 -153 -257 -153 -5 0 -8 21 -8 48
l0 47 215 130 215 130 0 229 c0 178 -3 227 -12 223 -21 -8 -1049 -605 -1064
-618 -11 -9 -14 -41 -14 -135 0 -68 -3 -124 -7 -124 -5 0 -23 9 -41 20 l-33
20 3 136 3 136 620 359 c341 197 623 359 628 359 4 0 6 -147 5 -327z m1265
-374 l358 -83 -3 -55 -3 -55 -185 -22 c-102 -12 -236 -27 -297 -34 -62 -7
-113 -16 -113 -20 0 -3 126 -42 279 -85 154 -43 284 -81 288 -84 5 -3 7 -30 5
-58 -3 -41 -8 -53 -20 -53 -10 0 -181 -11 -382 -25 -200 -13 -365 -23 -366
-22 0 1 1 18 3 38 l5 36 266 17 c301 19 357 25 345 36 -4 5 -140 45 -300 91
l-293 82 0 38 c0 21 3 40 8 42 4 3 138 19 297 37 312 34 323 36 309 49 -5 5
-137 39 -294 76 -157 37 -288 70 -291 73 -11 11 3 74 15 69 6 -2 172 -42 369
-88z m-5062 34 c47 -28 71 -85 72 -168 1 -134 -49 -185 -180 -185 l-73 0 0 34
0 34 71 4 c63 3 74 7 95 31 41 48 27 172 -21 191 -27 10 -98 6 -122 -7 -12 -7
-75 -70 -140 -141 -65 -71 -135 -138 -156 -149 -47 -24 -141 -26 -185 -3 -48
25 -74 85 -76 176 -2 136 45 185 179 192 l70 3 0 -35 0 -35 -67 -5 c-56 -4
-72 -10 -94 -31 -21 -22 -25 -35 -25 -82 0 -59 20 -111 46 -121 29 -11 86 -6
118 9 18 8 82 70 142 136 61 67 122 130 136 140 56 40 153 45 210 12z m2603
-528 l225 -130 1 -270 0 -271 -85 -49 -85 -49 0 -265 0 -266 -145 -82 c-80
-46 -148 -83 -152 -83 -5 1 -71 38 -148 83 l-140 83 -3 266 -2 266 -85 48 -85
48 0 270 0 271 228 132 c125 73 232 131 238 130 7 -1 113 -60 238 -132z
m-2466 -173 c23 -86 45 -167 48 -179 5 -18 1 -25 -21 -33 -23 -9 -90 2 -357
55 -181 37 -337 65 -347 63 -17 -3 -15 -14 21 -142 21 -77 35 -143 31 -147 -4
-3 -18 -10 -29 -13 -20 -6 -25 4 -73 176 -28 101 -51 187 -51 190 0 26 89 15
404 -48 185 -37 338 -65 341 -62 2 2 -13 66 -34 142 l-39 137 22 9 c11 5 26 9
31 9 6 1 29 -70 53 -157z m4765 -272 c203 -33 370 -60 372 -60 7 0 -17 -60
-25 -65 -4 -2 -43 2 -86 9 -60 11 -82 12 -90 3 -12 -12 -84 -183 -84 -197 0
-5 31 -31 70 -57 38 -26 70 -51 70 -55 0 -25 -22 -59 -35 -54 -8 3 -152 101
-320 217 -332 230 -311 209 -279 286 8 18 20 33 27 33 6 0 178 -27 380 -60z
m-4607 -164 c38 -25 83 -94 100 -153 25 -87 0 -133 -111 -202 l-50 -30 -17 22
c-10 12 -18 27 -18 33 0 7 26 27 58 46 71 42 89 75 73 130 -7 21 -25 53 -40
70 -47 53 -70 46 -317 -92 -121 -67 -229 -133 -241 -147 -13 -13 -23 -35 -23
-49 0 -57 68 -144 112 -144 10 0 36 9 58 20 50 26 54 25 69 -7 14 -31 4 -43
-56 -69 -73 -32 -140 -7 -196 73 -58 82 -64 178 -15 230 22 24 252 158 428
251 91 48 133 52 186 18z m4219 -496 c150 -104 278 -190 283 -190 6 0 36 36
67 80 31 44 59 80 61 80 12 0 44 -22 44 -30 0 -13 -152 -230 -162 -230 -7 0
-586 398 -612 421 -9 8 23 58 38 59 5 0 131 -85 281 -190z m-3830 -45 c108
-116 125 -138 114 -151 -22 -27 -17 -25 -631 -205 -38 -11 -68 -24 -68 -29 0
-5 45 -57 100 -116 97 -103 100 -107 83 -126 -9 -10 -22 -17 -28 -16 -6 2 -68
64 -138 138 l-127 135 27 25 c22 19 105 47 355 120 181 52 328 100 328 105 0
6 -43 56 -96 113 -94 100 -96 103 -79 122 10 11 21 20 25 20 4 0 64 -61 135
-135z m3431 -156 c18 -100 35 -183 37 -185 2 -2 104 -41 225 -86 122 -44 222
-84 221 -87 0 -3 -13 -16 -29 -29 l-28 -22 -176 65 c-96 36 -181 65 -187 65
-8 0 -10 -12 -6 -35 4 -27 29 -60 101 -138 53 -56 96 -108 96 -114 0 -17 -49
-48 -59 -37 -4 5 -120 130 -256 278 l-248 270 29 24 28 25 108 -114 c126 -134
122 -139 78 96 l-30 159 27 28 c15 15 29 26 31 23 2 -2 19 -86 38 -186z
m-2886 -287 c-1 -10 -26 -42 -34 -42 -4 0 -47 27 -97 60 -49 34 -95 63 -103
66 -15 6 -161 -209 -152 -224 3 -5 39 -31 81 -58 41 -27 75 -52 75 -55 0 -4
-8 -16 -17 -28 l-18 -21 -82 55 -82 55 -24 -33 c-60 -79 -136 -201 -131 -209
3 -5 47 -36 97 -70 51 -33 96 -64 100 -68 14 -13 -13 -52 -31 -47 -10 2 -74
44 -145 91 -83 57 -125 91 -120 99 4 7 99 148 211 314 l203 303 134 -90 c74
-50 135 -94 135 -98z m2532 -267 c89 -176 164 -325 166 -332 2 -6 -10 -19 -26
-27 -36 -18 -3 -40 -300 202 -117 96 -216 172 -219 169 -3 -3 52 -116 121
-251 69 -134 126 -247 126 -250 0 -7 -61 -39 -65 -34 -9 11 -335 657 -335 665
0 9 42 33 59 33 4 0 113 -85 242 -190 128 -104 237 -190 242 -190 4 0 -49 112
-118 248 -69 137 -125 252 -125 255 0 11 55 36 62 29 3 -4 80 -151 170 -327z
m-2277 155 c2 -4 -51 -148 -120 -321 -93 -238 -121 -317 -112 -325 7 -6 49
-26 95 -44 82 -32 94 -45 73 -79 -7 -11 -33 -4 -140 39 -72 29 -131 56 -131
61 0 4 59 158 131 341 72 183 133 338 136 345 5 12 58 -1 68 -17z m1531 -106
c4 -14 3 -29 -2 -33 -5 -4 -60 -18 -121 -31 -88 -18 -113 -27 -113 -39 1 -28
47 -242 54 -248 4 -4 46 1 95 10 113 22 111 22 111 -12 0 -27 -4 -30 -50 -40
-27 -6 -68 -14 -91 -17 -22 -4 -43 -13 -46 -20 -6 -16 44 -255 56 -267 4 -4
61 4 127 17 67 15 122 22 127 17 5 -5 7 -19 5 -32 -3 -21 -16 -25 -162 -56
-88 -18 -160 -32 -162 -31 -7 8 -153 732 -148 737 4 4 222 54 306 70 4 0 11
-11 14 -25z m-988 -39 c29 -5 42 -12 43 -23 0 -10 12 -183 27 -385 l28 -368
-36 3 -35 3 -10 90 -10 90 -100 17 c-55 10 -106 16 -114 15 -8 -1 -29 -38 -46
-82 l-31 -80 -34 3 c-19 2 -36 5 -38 6 -1 2 61 166 140 365 112 286 145 360
157 357 9 -3 35 -8 59 -11z"/>
<path d="M7525 5975 c-93 -46 -171 -88 -173 -94 -4 -13 404 -16 412 -3 2 4 -5
47 -16 95 -15 67 -24 87 -36 86 -10 0 -93 -38 -187 -84z"/>
<path d="M2325 6038 c-30 -91 -31 -137 -5 -171 17 -21 43 -31 149 -56 178 -42
200 -33 231 97 7 29 10 55 8 57 -6 6 -344 85 -364 85 -8 0 -16 -6 -19 -12z"/>
<path d="M4817 4852 l-187 -107 0 -221 0 -222 85 -48 85 -49 0 -266 0 -265 98
-57 c55 -31 102 -57 106 -57 5 0 53 25 107 56 l99 56 0 267 0 266 85 48 85 48
0 222 0 222 -132 75 c-72 41 -156 90 -187 107 l-57 33 -187 -108z m441 -204
l-3 -43 -250 0 -250 0 -3 43 -3 42 256 0 256 0 -3 -42z m0 -210 l-3 -43 -250
0 -250 0 -3 43 -3 42 256 0 256 0 -3 -42z m-168 -213 l0 -46 -82 3 -83 3 -3
43 -3 42 85 0 86 0 0 -45z m0 -210 l0 -46 -82 3 -83 3 -3 43 -3 42 85 0 86 0
0 -45z m0 -210 l0 -46 -82 3 -83 3 -3 43 -3 42 85 0 86 0 0 -45z"/>
<path d="M7235 4441 c8 -13 323 -231 334 -231 9 0 71 146 71 167 0 14 -8 15
-216 48 -179 28 -198 29 -189 16z"/>
<path d="M4617 2949 c-57 -139 -139 -360 -135 -364 10 -11 173 -33 181 -25 8
7 -19 409 -28 418 -2 2 -10 -11 -18 -29z"/>
</g>
</svg>
